<?xml version="1.0" encoding="utf-8"?>
<!-- Generator: Adobe Illustrator 15.0.0, SVG Export Plug-In . SVG Version: 6.00 Build 0)  -->
<!DOCTYPE svg PUBLIC "-//W3C//DTD SVG 1.1//EN" "http://www.w3.org/Graphics/SVG/1.1/DTD/svg11.dtd">
<svg version="1.1" id="Layer_1" xmlns="http://www.w3.org/2000/svg" xmlns:xlink="http://www.w3.org/1999/xlink" x="0px" y="0px"
	 width="158.334px" height="198px" viewBox="0 0 158.334 198" enable-background="new 0 0 158.334 198" xml:space="preserve">
<path stroke="#231F20" stroke-miterlimit="10" d="M80.305,2.296l-0.807-0.084l-76.69,8.04V150.82L79.5,196.453l76.692-45.633V10.252
	L80.305,2.296z M146.16,145.116L79.5,184.779l-66.66-39.663V87.5l66.374,39.506l0.111,7.159l-45.534-27.1l-0.067,6.951
	l45.715,27.475l0.113,7.35l-45.7-27.186l-0.066,6.95L79.5,156.081l46.152-27.615v-6.982l-0.058,0.034v-2.386v-2.864V98.812
	l20.565-12.281V145.116z M146.106,79.057L127.87,89.801l-8.419,4.96L79.302,70.877l-0.066,6.951l34.316,20.407l-0.304,0.18
	l-0.739,0.435l-4.876,2.873L79.302,84.868l-0.066,6.951l22.362,13.298l-5.276,3.529l-0.128,0.077l-16.892-9.951l-0.066,6.95
	l11.084,6.527l-11.291,6.779L12.985,79.77l66.139-39.755v0.007L146.106,79.057z M146.16,72.065L79.14,32.557v-0.01l-0.008,0.005
	l-0.008-0.005v0.01L12.84,72.019V19.288l66.661-6.989l66.659,6.989V72.065z"/>
<rect x="488.07" y="-158.563" fill="#FFFFFF" stroke="#000000" stroke-miterlimit="10" width="247.487" height="283.485"/>
<rect x="330.578" y="16.928" fill="#FFFFFF" stroke="#000000" stroke-miterlimit="10" width="247.487" height="283.485"/>
<rect x="299.079" y="60.426" fill="#FFFFFF" stroke="#000000" stroke-miterlimit="10" width="67.497" height="0"/>
</svg>
